<?xml version="1.0" encoding="UTF-8" standalone="no"?>
<!DOCTYPE svg PUBLIC "-//W3C//DTD SVG 1.1//EN" "http://www.w3.org/Graphics/SVG/1.1/DTD/svg11.dtd">
<svg width="100%" height="100%" viewBox="0 0 488 480" version="1.1" xmlns="http://www.w3.org/2000/svg" xmlns:xlink="http://www.w3.org/1999/xlink" xml:space="preserve" xmlns:serif="http://www.serif.com/" style="fill-rule:evenodd;clip-rule:evenodd;stroke-linejoin:round;stroke-miterlimit:2;">
    <g transform="matrix(0.1,0,0,-0.1,-76.6124,560)">
        <path d="M1869,5194L2352,5600L3110,5600L3110,5200L2502,5200L2302,5033C2191,4940 2101,4861 2101,4857C2100,4852 2128,4815 2162,4774C2215,4709 2225,4701 2239,4713C2248,4721 2326,4786 2412,4858L2568,4990L3835,4990L4316,4586L4797,4181L4818,4068C4868,3797 4893,3640 4887,3633C4879,3626 4518,3561 4509,3566C4506,3568 4488,3657 4470,3765L4436,3960L4180,4174C4040,4292 3871,4433 3805,4489L3685,4590L3390,4590L3390,4380L3617,4380L3935,4113L4254,3845L4302,3570C4328,3419 4361,3235 4374,3162L4398,3029L4192,2672C4079,2476 3986,2314 3985,2312C3981,2306 3215,2030 3202,2030C3182,2030 2436,2302 2424,2314C2405,2332 2010,3020 2010,3035C2010,3065 2151,3845 2158,3852C2162,3856 2305,3976 2475,4119L2785,4379L2898,4380L3010,4380L3010,4590L2720,4590L2628,4512C2577,4469 2410,4329 2257,4201C2104,4073 1975,3958 1970,3946C1965,3935 1925,3717 1881,3463L1800,3001L1900,2828C1978,2694 1997,2653 1987,2644C1973,2632 1675,2460 1667,2460C1664,2460 1642,2495 1617,2538C1592,2580 1531,2686 1481,2772C1431,2859 1390,2938 1390,2947C1390,2957 1406,3052 1425,3159C1444,3266 1458,3355 1457,3356C1452,3360 1268,3391 1265,3388C1264,3386 1244,3278 1221,3148L1179,2911L1290,2721C1350,2616 1401,2526 1402,2520C1404,2514 1387,2498 1365,2485L1324,2460L1200,2677L1076,2893L1129,3194C1158,3359 1183,3497 1186,3499C1191,3504 1562,3441 1569,3434C1571,3432 1555,3324 1532,3193L1490,2957L1595,2774L1701,2592L1780,2637C1824,2662 1860,2686 1860,2690C1860,2694 1823,2762 1778,2840L1697,2983L1875,4005L1920,4047C1945,4069 2127,4223 2325,4389L2684,4690L3110,4690L3110,4280L2823,4280L2559,4059C2414,3938 2283,3826 2268,3812C2243,3787 2237,3766 2204,3580C2185,3467 2155,3301 2139,3211L2110,3048L2287,2741C2384,2573 2470,2424 2480,2411C2492,2393 2578,2358 2849,2259L3202,2131L3558,2261C3754,2332 3915,2391 3916,2393C3933,2414 4290,3045 4290,3055C4290,3075 4170,3752 4162,3777C4158,3789 4027,3907 3870,4039L3585,4279L3437,4280L3290,4280L3292,4483L3295,4685L3507,4688L3718,4690L3927,4516C4041,4420 4223,4268 4330,4178L4525,4014L4585,3678L4635,3685C4724,3697 4780,3711 4779,3723C4779,3730 4762,3824 4742,3932L4705,4130L4252,4510L3798,4890L2605,4890L2455,4764C2373,4695 2284,4620 2258,4599L2211,4559L2084,4711C1994,4819 1959,4867 1966,4876C1971,4883 2086,4981 2221,5094L2468,5300L3010,5300L3010,5500L2389,5500L2207,5348C2107,5264 1898,5088 1742,4957C1586,4826 1453,4717 1446,4714C1432,4709 1377,4767 1382,4780C1384,4785 1603,4971 1869,5194ZM3290,5200L3290,5600L4051,5600L4173,5498C4240,5443 4302,5391 4310,5383C4323,5372 4320,5365 4289,5335L4254,5300L4016,5500L3390,5500L3390,5300L3936,5300L4028,5224C4079,5182 4120,5144 4120,5139C4120,5134 4107,5116 4091,5098L4062,5066L3991,5124C3952,5156 3917,5187 3914,5191C3911,5196 3770,5200 3599,5200L3290,5200ZM4368,5275C4390,5302 4398,5306 4412,5296C4428,5285 4915,4877 4993,4808L5032,4775L4998,4738L4965,4700L4881,4772L4797,4845L4758,4800C4675,4705 4666,4690 4681,4676C4689,4669 4779,4592 4882,4506C4993,4413 5072,4340 5075,4327C5078,4315 5114,4112 5156,3875C5197,3639 5252,3330 5276,3190C5301,3050 5322,2924 5323,2910C5324,2894 5269,2789 5166,2610C5079,2459 5003,2330 4998,2323C4991,2315 4944,2337 4827,2405C4738,2457 4664,2503 4662,2508C4661,2512 4716,2614 4785,2732C4854,2851 4910,2956 4910,2964C4910,2981 4849,3333 4846,3337C4842,3342 4665,3308 4658,3301C4654,3298 4664,3225 4680,3140L4708,2985L4447,2531L4185,2077L4035,2023C3953,1993 3882,1965 3877,1961C3869,1953 3923,1797 3937,1793C3948,1789 4300,1918 4316,1931C4323,1936 4381,2033 4446,2146C4510,2258 4566,2349 4569,2348C4593,2337 4900,2158 4900,2154C4900,2152 4830,2029 4744,1881C4634,1690 4582,1609 4567,1604C4555,1600 4244,1487 3875,1353L3205,1109L3155,1126C3128,1135 3082,1152 3053,1162L3002,1181L3017,1225C3025,1250 3036,1270 3041,1270C3046,1270 3079,1259 3116,1245C3152,1231 3192,1220 3204,1221C3215,1221 3517,1328 3874,1458L4522,1695L4641,1900C4706,2013 4759,2110 4759,2115C4759,2125 4618,2210 4603,2210C4598,2209 4550,2130 4495,2034C4440,1937 4390,1854 4384,1850C4370,1838 3878,1659 3873,1664C3868,1669 3751,1991 3748,2009C3746,2019 3801,2043 3930,2090L4115,2157L4282,2446C4375,2605 4484,2795 4526,2868L4603,3001L4570,3191C4552,3296 4539,3382 4541,3384C4548,3390 4921,3453 4925,3449C4927,3447 4949,3331 4973,3191L5018,2938L4908,2746C4847,2641 4796,2552 4794,2548C4788,2538 4951,2447 4960,2457C4980,2479 5220,2907 5220,2921C5220,2930 5166,3243 5100,3616C5000,4183 4977,4298 4961,4311C4812,4433 4530,4674 4530,4679C4530,4682 4573,4735 4624,4797L4719,4909L4653,4965C4599,5011 4585,5018 4573,5008C4565,5002 4520,4950 4473,4893L4388,4791L4296,4867C4246,4909 4191,4957 4173,4973L4141,5003L4168,5036C4183,5055 4199,5070 4203,5070C4208,5070 4246,5041 4288,5005C4330,4969 4370,4940 4375,4941C4386,4941 4487,5060 4495,5082C4498,5090 4467,5122 4420,5160C4376,5196 4340,5229 4340,5234C4340,5238 4352,5257 4368,5275ZM1691,4649C1757,4704 1813,4750 1815,4750C1817,4750 1876,4682 1946,4598L2074,4446L2025,4404C1997,4380 1912,4308 1835,4243L1696,4125L1653,3880C1629,3745 1608,3630 1606,3624C1603,3617 1541,3624 1414,3647C1311,3665 1225,3682 1222,3685C1219,3688 1242,3835 1273,4013C1304,4190 1330,4338 1330,4341C1330,4348 1486,4480 1494,4480C1497,4480 1511,4464 1527,4444L1554,4408L1487,4346L1420,4285L1380,4050C1358,3921 1337,3803 1334,3789C1329,3763 1330,3762 1418,3746C1468,3737 1512,3730 1517,3730C1522,3730 1544,3832 1566,3956L1605,4181L1767,4317C1857,4392 1930,4455 1930,4457C1930,4466 1807,4610 1799,4610C1795,4610 1789,4606 1786,4602C1783,4597 1747,4566 1706,4532L1632,4470L1601,4509L1570,4547L1691,4649ZM1176,4613C1240,4666 1295,4710 1298,4710C1302,4710 1318,4694 1334,4674L1362,4638L1324,4607C1205,4509 1150,4457 1145,4437C1143,4425 1080,4067 1005,3642C893,3004 871,2866 881,2847C888,2835 951,2725 1021,2604C1091,2482 1150,2378 1152,2371C1154,2365 1137,2349 1115,2336L1074,2312L920,2578L766,2845L793,3000C824,3181 839,3268 955,3925C1002,4195 1045,4438 1051,4465C1060,4513 1065,4520 1176,4613ZM5076,4675C5090,4694 5105,4710 5109,4710C5112,4710 5167,4666 5230,4612L5344,4515L5492,3681L5639,2847L5323,2301C5150,2001 4960,1673 4902,1572C4844,1471 4789,1385 4781,1380C4746,1362 3214,807 3200,808C3191,808 3121,832 3043,860L2902,912L2918,956C2927,980 2938,1000 2942,1000C2947,1000 3007,979 3076,954L3202,909L3949,1180C4359,1329 4703,1457 4713,1463C4724,1470 4782,1563 4844,1670C4906,1777 5086,2089 5243,2362C5401,2635 5530,2867 5530,2877C5530,2893 5267,4399 5256,4445C5253,4456 5208,4501 5155,4544C5102,4587 5057,4627 5054,4631C5051,4636 5061,4656 5076,4675ZM1918,2397C2004,2448 2080,2489 2085,2489C2091,2490 2138,2416 2190,2325C2242,2235 2292,2158 2300,2155C2383,2121 3192,1830 3202,1830C3209,1830 3294,1859 3390,1894C3486,1929 3568,1955 3572,1951C3582,1942 3704,1601 3699,1596C3687,1587 3215,1420 3199,1420C3180,1420 3100,1449 3100,1456C3100,1470 3134,1540 3140,1540C3145,1540 3161,1535 3175,1530C3198,1521 3230,1530 3383,1585C3482,1622 3567,1653 3571,1656C3576,1659 3526,1812 3514,1829C3512,1831 3441,1807 3356,1776L3202,1720L2724,1894C2460,1990 2238,2071 2230,2075C2222,2078 2179,2144 2136,2220L2056,2359L1990,2322C1954,2302 1917,2280 1907,2274C1891,2265 1899,2247 1987,2096C2078,1940 2088,1926 2126,1911L2167,1895L2152,1851C2139,1812 2135,1808 2111,1813C2026,1831 2021,1836 1887,2069C1817,2190 1760,2293 1760,2297C1760,2302 1831,2347 1918,2397ZM1412,2398C1430,2409 1450,2419 1455,2419C1461,2419 1559,2256 1674,2056L1883,1692L1977,1660C2053,1634 2070,1624 2065,1611C2061,1602 2053,1583 2048,1568C2043,1552 2034,1540 2028,1540C2023,1540 1972,1556 1916,1576L1814,1612L1603,1979C1486,2180 1388,2352 1385,2361C1381,2373 1389,2384 1412,2398ZM1162,2248C1180,2259 1200,2269 1205,2269C1211,2269 1319,2088 1446,1867L1678,1465L1816,1413C1893,1385 1958,1360 1962,1358C1973,1353 1948,1279 1934,1273C1927,1270 1851,1294 1766,1326L1610,1383L1532,1519C1489,1594 1383,1778 1296,1928C1210,2078 1137,2206 1134,2214C1131,2222 1142,2236 1162,2248ZM2249,1833C2255,1848 2261,1860 2264,1860C2268,1860 2968,1606 3012,1589L3038,1578L3023,1533C3010,1495 3004,1489 2986,1494C2975,1497 2801,1560 2600,1633C2204,1778 2224,1767 2249,1833ZM2147,1548C2156,1571 2164,1590 2165,1590C2167,1590 2402,1506 2447,1489C2468,1481 2467,1480 2419,1349C2392,1276 2372,1215 2374,1213C2379,1207 2533,1150 2536,1153C2537,1154 2559,1214 2585,1285C2611,1357 2633,1416 2635,1418C2638,1421 2923,1318 2933,1310C2942,1302 2912,1220 2900,1220C2896,1220 2849,1236 2796,1256C2742,1276 2697,1290 2695,1288C2693,1286 2678,1248 2661,1202C2626,1108 2618,1119 2745,1075C2789,1059 2828,1044 2833,1040C2840,1034 2824,972 2810,957C2802,948 2776,957 2345,1114C2186,1173 2050,1222 2043,1225C2034,1228 2035,1240 2046,1275C2055,1300 2064,1320 2068,1320C2071,1320 2118,1304 2172,1284C2226,1264 2273,1249 2275,1251C2287,1264 2338,1420 2331,1425C2326,1427 2282,1444 2234,1461C2185,1478 2142,1495 2138,1499C2133,1503 2137,1525 2147,1548Z" style="fill:white;"/>
    </g>
</svg>
